<?xml version="1.0" encoding="utf-8"?>
<!-- Generator: Adobe Illustrator 23.0.1, SVG Export Plug-In . SVG Version: 6.00 Build 0)  -->
<svg version="1.1" id="Layer_1" xmlns="http://www.w3.org/2000/svg" xmlns:xlink="http://www.w3.org/1999/xlink" x="0px" y="0px"
	 viewBox="0 0 5010.6 1156" style="enable-background:new 0 0 5010.6 1156;" xml:space="preserve">
<style type="text/css">
	.st0{fill:#FFFFFF;}
</style>
<path class="st0" d="M3432.1,3.3c30.5,0,59.3,0,88.1,0c52.8,0,105.6-0.2,158.4,0.1c57,0.3,107.1,17.3,144.5,63.1
	c25.2,30.9,36.2,67.2,36.5,106.7c0.5,59.8,0.2,119.6,0.1,179.4c0,79.2-49.1,148-123.7,173.4c-4.5,1.5-9.1,3.2-17.2,6
	c36.1,6.9,66.3,18.8,92.1,40.2c41.1,34.1,62.7,77.3,62.1,131.6c-1,90-3.3,180-1.3,269.9c2.1,97.4-61.1,175.9-171.1,180.4
	c-87.5,3.6-175.2,0.9-262.8,0.9c-1.5,0-3-0.8-5.6-1.6C3432.1,770.8,3432.1,388.1,3432.1,3.3z M3586.4,589.6c0,146.5,0,293.5,0,441.8
	c7,0,12.9,0,18.7,0c18.5-0.1,37.1,1.1,55.4-0.5c31.6-2.7,50.8-26.4,50.9-63.1c0.4-103,0.1-206.1,0.1-309.1c0-5.5-0.5-11-1.3-16.4
	c-4.4-27.5-22.2-49.6-47-52.1C3638.1,587.6,3612.6,589.6,3586.4,589.6z M3586.7,126c0,120,0,238,0,356c20.4,0,39.4,0.8,58.3-0.2
	c19.3-1,35.2-10.7,42.9-28.2c6.2-14.1,10.4-30.2,10.7-45.5c1.2-55.3,0.6-110.7,0.4-166c-0.1-20.8,0.3-41.7-1.8-62.4
	c-3.2-32.3-24-51.8-55.8-53.5C3623.6,125.3,3605.7,126,3586.7,126z M2940.4,24.3c0,308.1,0,616.1,0.1,924.2c0,15,0.9,30,2.7,44.9
	c10.2,84.7,58.2,136.3,142.6,153.4c42.6,8.6,85.5,7.9,128.1,0.9c32-5.3,62-16.3,87.9-36.2c47.6-36.6,65.1-87.1,65.2-144.2
	c0.3-315.6,0.2-631.1,0.2-946.7c0-5.2,0-10.4,0-16c-54.1,0-106.5,0-159.9,0c0,7.6,0,13.9,0,20.3c0,304.8,0,609.7-0.1,914.5
	c0,13.3-0.9,26.8-3.3,39.9c-4.3,23.8-20.9,37.1-45.5,38.2c-27.5,1.2-45.8-10.1-51.7-34.3c-3.2-12.8-4-26.4-4-39.7
	c-0.2-306.5-0.2-612.9-0.2-919.4c0-6.3,0-12.6,0-19.7c-54.6,0-107.5,0-162.2,0C2940.4,11.6,2940.4,18,2940.4,24.3z M833.2,534.5
	c15.6,5,28.5,8.4,40.9,13.2c66.7,25.8,98.7,72.7,98.7,144.1c0,113-0.3,226.1,0.1,339.1c0.1,39.5-5.5,79.7,15.2,119
	c-50.1,0-97.3,0.3-144.4-0.5c-4.8-0.1-12.5-6.6-13.7-11.5c-5.4-21.4-12.4-43.3-12.6-65c-1.1-135.4-0.5-270.8-0.6-406.3
	c0-7.6-0.2-15.3-1.6-22.8c-7.6-41.6-28.5-58.9-70.8-59.2c-12.4-0.1-24.8,0-39.7,0c0,7.7,0,14,0,20.3c0,151.8,0.1,303.6-0.1,455.4
	c0,29.3-1.5,58.5-2.3,87.8c-29.2,0.6-58.5,1.3-87.7,1.7c-20.6,0.3-41.2,0.1-63,0.1c0-382.3,0-763.1,0-1145.6c5.1-0.3,10.3-1,15.5-1
	c76.7-0.1,153.5-0.1,230.2,0C853.1,3.4,902.5,19.5,940.1,63c26.4,30.5,38.4,67.1,38.9,106.9c0.8,63.3,0.7,126.7,0.1,190
	c-0.6,69.5-56.5,142.1-128.4,168.2C845.9,530,841,531.7,833.2,534.5z M706.3,125.6c0,119.4,0,236.8,0,355c16.7,0,31.9,0.5,47.1-0.1
	c38.1-1.6,62.9-26.1,63.3-64.7c0.7-75.8,0.8-151.6-0.1-227.4c-0.4-37.1-21.4-59.8-55.8-62.5C743.1,124.5,725.1,125.6,706.3,125.6z
	 M1951.1,1155.9c-50.2,0-96.9,0.5-143.5-0.7c-5.9-0.2-14.8-8.5-16.7-14.8c-5.2-17.6-10.1-36.2-10.3-54.4
	c-0.9-138.8-0.6-277.7-0.9-416.6c0-9.8-1-19.7-3-29.3c-6.3-30.9-24.4-48.4-55.3-51.4c-17.1-1.7-34.6-0.3-53.7-0.3
	c0,188.6,0,376.6,0,566c-51.9,0-102.1,0-153.4,0c0-383.2,0-765.9,0-1150.2c5.4-0.3,10.6-1,15.8-1c76.7-0.1,153.4-0.3,230.2,0
	c64.7,0.3,119.4,21.8,156.1,78.7c18.3,28.4,25.4,60.4,25.5,93.9c0.2,60.9,0.5,121.8-0.1,182.8c-0.7,73.3-54.4,144.7-128.5,172.3
	c-4.6,1.7-9.2,3.2-18.2,6.4c10.9,3.2,18.2,5,25.3,7.3c54.1,17.8,96.5,48,111,107.2c3,12.1,3.7,25,3.8,37.5
	c0.3,126.2,0.3,252.5,0,378.7C1935.4,1097.3,1935.8,1126.1,1951.1,1155.9z M1668.3,483.1c17,0,32.1,0.5,47.3-0.1
	c38.1-1.6,63.5-25.8,64-64.4c1-76.2,0.9-152.5,0-228.7c-0.4-36.7-19-58.8-52.2-62.8c-19.1-2.3-38.8-0.4-59.1-0.4
	C1668.3,245.3,1668.3,363,1668.3,483.1z M505.3,1150c-50,0-97.2,0.2-144.4-0.5c-3.5-0.1-9.6-6.8-10-10.8
	c-6.2-61.9-11.6-123.8-17.3-185.7c-3.8-41.2-7.9-82.4-12-124.6c-48.4,0-95.8,0-144.5,0c-10.6,106.9-21.2,213.6-31.8,320.9
	c-48.9,0-96,0-145.2,0c40.6-382,81.3-763,122-1144.9c85.8,0,170.9,0,257.7,0C421.6,385.6,463.3,766.4,505.3,1150z M311,710.7
	c-15.1-164-30.1-326.7-45-489.6c-11,0-20,0-30.1,0c-16.2,163.3-32.2,326-48.4,489.6C228.5,710.7,268.6,710.7,311,710.7z M5010.1,378
	c-0.1-75.8,1.7-151.8-1.1-227.5c-2-54.1-30.4-95.9-79.6-122.7c-46.7-25.5-97.9-30-150.2-27c-118,6.8-188,70.4-187.2,193.4
	c1.7,252.3,0.5,504.6,0.6,756.9c0,15.7,0.9,31.6,2.8,47.2c9,75.7,54.1,127.1,129,145.4c51.5,12.5,103.6,12.1,155.2,0.5
	c30-6.8,57.4-19.6,79.7-40.9c38.7-36.9,50.9-83.2,50.9-133.9c0-82.2,0-164.3,0-246.5c0-5-0.6-10.1-0.9-15c-50.8,0-100,0-150.3,0
	c0,6.9,0,12.7,0,18.4c0,74.8,0.1,149.6-0.1,224.4c0,8.9-0.8,17.9-2.3,26.7c-4.7,27.7-20.8,41.6-48.1,42.1
	c-29.2,0.6-45.5-11.8-51.4-40.1c-1.6-7.7-2-15.6-2.1-23.5c-0.8-188-1.5-376-2.1-564c-0.2-62.2-0.2-124.3,0.2-186.5
	c0.1-9.8,1.6-20,4.6-29.4c5.7-17.9,19.6-27.3,38.6-29.4c39.4-4.5,62.2,15.7,62.5,56.1c0.4,54.2,0.1,108.5,0.1,162.8
	c0,5.6,0,11.3,0,17.6c51,0,100.3,0,149.7,0C5009.4,380.9,5010.1,379.5,5010.1,378z M2448.1,4.4c3.5-0.5,6.1-1.1,8.8-1.1
	c87,0.1,174.1-0.1,261.1,0.6c15.1,0.1,30.4,2.2,45.2,5.6c61.5,14.2,99.9,57.6,107.5,121.2c1.9,16.3,2.9,32.8,2.9,49.2
	c0.2,126.4,0.3,252.7,0,379.1c0,14.7-1.3,29.7-3.8,44.2c-10.5,61.3-49.7,99.8-112,106c-40.4,4-81.4,3.3-122.1,4.6
	c-6.9,0.2-13.9,0-22.5,0c0,148,0,294.3,0,442.1c-55.7,0-109.8,0-164.9,0C2448.1,772.5,2448.1,389.3,2448.1,4.4z M2608.2,595
	c16.7,0,31.9,0,47.1,0c42.5,0,58-15.6,58-58.4c0-113.1,0.2-226.3-0.2-339.4c0-11.9-1.8-24.2-5-35.6c-5.5-19.5-19.2-32.8-39.1-35
	c-19.7-2.2-39.9-0.5-60.7-0.5C2608.2,282.4,2608.2,437.6,2608.2,595z M2382.5,125.9c0-41.8,0-81.6,0-121.5c-121.1,0-241.1,0-361.5,0
	c0,384.3,0,767.5,0,1151.6c118.2,0,235.3,0,352.4,0c0-41.4,0-81.8,0-123.7c-62.9,0-124.6,0-186.2,0c0-146.3,0-290.9,0-437.7
	c58,0,114.8,0,171.6,0c0-37.7,0-73.3,0-111.1c-57.7,0-114.5,0-172,0c0-120,0-237.8,0-357.7C2252.6,125.9,2317.5,125.9,2382.5,125.9z
	 M1316.4,124.3c45.3,0,89,0,132.4,0c0-41.4,0-80.6,0-120c-146.2,0-291.2,0-436.3,0c0,40.7,0,80.2,0,121.1c44.3,0,87.1,0,132.4,0
	c0,343.3,0,685.2,0,1027.5c57.8,0,113.2,0,171.5,0C1316.4,809.7,1316.4,468.1,1316.4,124.3z M3929.5,1153c118.1,0,234.8,0,351.7,0
	c0-41.3,0-81.5,0-123.1c-64.2,0-127,0-191.6,0c0-342.7,0-683.8,0-1025.8c-54.2,0-106.8,0-160.1,0
	C3929.5,388.2,3929.5,770.4,3929.5,1153z M4500.4,1153c15.1,0.3,19-4,19-19.1c-0.4-371.1-0.3-742.1-0.3-1113.2c0-5.8,0-11.7,0-18.4
	c-57.8,0-113.5,0-170.3,0c0,383.2,0,765.5,0,1150.3C4400.5,1152.6,4450.5,1152,4500.4,1153z"/>
</svg>
